<svg width="220" height="56" viewBox="0 0 220 56" fill="none" xmlns="http://www.w3.org/2000/svg">
  <rect width="220" height="56" rx="18" fill="#07110F"/>
  <path d="M24 39V17H30.8L38 30.1L45.2 17H52V39H45.9V27.3L40 37H36L30.1 27.3V39H24Z" fill="#F4E7B4"/>
  <path d="M60 39V17H66.2V39H60Z" fill="#F4E7B4"/>
  <path d="M73 39V17H81.9C88.9 17 93.9 21.5 93.9 28C93.9 34.5 88.9 39 81.9 39H73ZM79.2 33.7H81.6C85.1 33.7 87.5 31.5 87.5 28C87.5 24.5 85.1 22.3 81.6 22.3H79.2V33.7Z" fill="#F4E7B4"/>
  <path d="M100 39V17H116V22.1H106.2V25.5H115.1V30.3H106.2V33.9H116.4V39H100Z" fill="#F4E7B4"/>
  <path d="M123 39V17H129.2V33.7H139.4V39H123Z" fill="#F4E7B4"/>
  <path d="M144 39V17H150.2V39H144Z" fill="#F4E7B4"/>
  <path d="M157 39V17H163.6L172.4 29V17H178.5V39H172.2L163.1 26.6V39H157Z" fill="#F4E7B4"/>
  <path d="M185 39V17H201V22.1H191.2V25.5H200.1V30.3H191.2V33.9H201.4V39H185Z" fill="#F4E7B4"/>
  <path d="M206 17H212V39H206V17Z" fill="#10B981"/>
  <circle cx="209" cy="14" r="4" fill="#F59E0B"/>
</svg>
